<svg xmlns="http://www.w3.org/2000/svg" xmlns:xlink="http://www.w3.org/1999/xlink" viewBox="0 0 568.14 324.95"><defs><style>.cls-1,.cls-4{fill:none;}.cls-2{clip-path:url(#clip-path);}.cls-3{fill:#294596;}.cls-4{stroke:#f6f6f6;stroke-miterlimit:10;stroke-width:0.77px;}.cls-5,.cls-7{font-size:49.25px;fill:#1d1d1b;font-family:HoeflerText-Regular, Hoefler Text;}.cls-6{letter-spacing:0.05em;}.cls-7{letter-spacing:0.35em;}.cls-8{letter-spacing:0.05em;}.cls-9{letter-spacing:-0.04em;}.cls-10{letter-spacing:0.05em;}.cls-11{letter-spacing:0em;}</style><clipPath id="clip-path" transform="translate(0.02 -0.03)"><rect class="cls-1" width="570.24" height="325"/></clipPath></defs><g id="Lag_2" data-name="Lag 2"><g id="Lag_1-2" data-name="Lag 1"><g id="Ballet.logo"><g class="cls-2"><g class="cls-2"><path class="cls-3" d="M133.2,191.6c.27.23.58.73,2.21,2.51.17.19.81.89,1.61,1.72,4.52,4.7,6,5.17,6.13,6.4.62,5-21.45,12.82-26.56,14.63-6.4,2.27-6.78,2-10.25,3.65-11,5.13-17.34,12.3-18.07,11.33-.58-.78,3-4.63,7-12.8.28-.58.56-1.16,1-2a22.17,22.17,0,0,1,6.76-7,64.06,64.06,0,0,1,9.12-5.2c11.27-5.72,18.64-15.36,21-13.27" transform="translate(0.02 -0.03)"/><path class="cls-4" d="M133.2,191.6c.27.23.58.73,2.21,2.51.17.19.81.89,1.61,1.72,4.52,4.7,6,5.17,6.13,6.4.62,5-21.45,12.82-26.56,14.63-6.4,2.27-6.78,2-10.25,3.65-11,5.13-17.34,12.3-18.07,11.33-.58-.78,3-4.63,7-12.8.28-.58.56-1.16,1-2a22.17,22.17,0,0,1,6.76-7,64.06,64.06,0,0,1,9.12-5.2C123.49,199.15,130.86,189.51,133.2,191.6Z" transform="translate(0.02 -0.03)"/><path class="cls-3" d="M163.25,169.68c-6.86.72-7.68,7.14-18.68,14.61-8.2,5.57-12.3,5.1-13.43,9.3-1.72,6.42,4.51,15.8,8.18,15.27,1.18-.17,1.45-1.29,4.28-4.1a47.48,47.48,0,0,1,6-4.88c5.78-4.32,6.91-6.15,15.45-13.19,9-7.4,11.2-8.22,11-10.37-.27-3.59-6.82-7.28-12.85-6.64" transform="translate(0.02 -0.03)"/><path class="cls-4" d="M163.25,169.68c-6.86.72-7.68,7.14-18.68,14.61-8.2,5.57-12.3,5.1-13.43,9.3-1.72,6.42,4.51,15.8,8.18,15.27,1.18-.17,1.45-1.29,4.28-4.1a47.48,47.48,0,0,1,6-4.88c5.78-4.32,6.91-6.15,15.45-13.19,9-7.4,11.2-8.22,11-10.37C175.83,172.73,169.28,169,163.25,169.68Z" transform="translate(0.02 -0.03)"/><path class="cls-3" d="M96,53.55c12.37-1.42,16.81,1.37,18.49,4.37,1.47,2.63,2,7.57,5.88,9.82,1.24.72,2.7,1.11,2.8,2.1.11,1.17-1.83,2.38-3.5,3.23,2.59,1.75,3.06,2.79,3,3.42,0,.23-.21.83,0,1.09s.59,0,.76.3,0,.33,0,.57c0,.56.37.89.44,1.27.42,2.34.69,3.56.18,4.18-.18.22-.55.57-3.12.85-1.34.15-2.3.17-2.67.19-1.08,0-4.64.19-5.92,2-1.61,2.31-.25,8.21,2.87,10.21,2.41,1.54,4.06-.68,11.58-.39,3.57.14,5,0,6.12,1.17.77.78.72,1.34,2.73,5.15a22.06,22.06,0,0,0,1.8,3.14,7.82,7.82,0,0,0,4.8,2.65,8.21,8.21,0,0,1,2.22.88,16,16,0,0,1,3.26,2.83,30.84,30.84,0,0,1,3.35,2.53,40.06,40.06,0,0,0,8.06,5.66c1.92.91,3.69,1.1,7.14,1.55,8.86,1.17,12.92-.14,13.23,1.06.39,1.51-5.47,5.45-10.91,6.73a24.42,24.42,0,0,1-10.91,0s-5.16-1-18.74-8.6h0c-3,2-8.79,6.69-8.28,9.43s6.66,2,16.93,5.2a71.59,71.59,0,0,1,10.53,4.24c.13-.3.2-.42.23-.41s-1,4.73-3.42,6.95c-3.07,2.81-8.06,1.41-14.06-.27-6.83-1.92-8.2-3.78-10.21-2.64-2.47,1.42-2.15,5-3.83,16-2,13-3.63,15.63-2.06,20.56.72,2.23,2.67,4.53,6.55,9,7.11,8.24,16.49,17.17,20.27,23.73.71,1.25,1.16,2.17,1.16,2.17,1.88,3.89,1.79,5.83,3.29,9,1.23,2.64,1.6,2,2.43,4a16.46,16.46,0,0,1-.37,12.55c-1.95,4.27-4.52,4.15-5.93,7.8a21.45,21.45,0,0,1-3,5.23l-.12.15a10.73,10.73,0,0,1,1.49-1.8s-11.84,15.26-24.5,28.56a127.08,127.08,0,0,0-8.8,11.14c-3.78,5.19-5.52,7.24-5,9.68.62,3.21,4.46,5,6,5.66,3.1,1.41,4,.48,7.69,1.77,3.3,1.17,7.32,3.63,7.06,5.2-.19,1.2-2.69,1.63-6.25,2.25a47.5,47.5,0,0,1-7.46.59c-1.92.05-.75.24-8-.16-3.39-.19-4.34-.37-5.45-.84a12.87,12.87,0,0,0-1.84-.79c-2-.53-3,.29-4.92.34a5.56,5.56,0,0,1-4.41-1.39,5.76,5.76,0,0,1-1.47-4.63c.07-.57.3-1.54,1.82-3.46A20.58,20.58,0,0,1,99,302.56c2-1.39,4.86-5.19,10.54-12.81,5.13-6.9,6.33-9.25,7.15-11.49,2.61-7.13,2-8.66,5-18.18,2.32-7.35,3.71-9.75,5.46-11.73a18.65,18.65,0,0,1,7.37-5c3.44-3.07,4-5.5,4-7.11-.11-4.44-5.41-5.95-13.11-13.78a83,83,0,0,1-9.93-11.68c-6.83-10-7.35-18.65-10-18.46-1.4.1-2.3,2.43-3.81,6.81C98,209.79,96.86,214.84,95.22,220c-4.37,13.67-7.59,13-10.91,24.26a15.74,15.74,0,0,1-4,7.34c-2.32,2.2-4.27,2.17-7,3.38-4.29,2-4.62,4.47-9.7,9.64s-10.19,8.22-15,11.07a52.73,52.73,0,0,0-10.06,6.95,54.57,54.57,0,0,0-4.35,4.49c-7.46,8.79-6.81,16.38-12.77,24C13.77,321,2,326.19.54,324.15c-.46-.63,0-2,.58-3.07.94-1.22,9.4-12.18,12.13-16.52a7.48,7.48,0,0,0,1.07-2.28c.64-2.53-.6-4-.09-6.8a8.87,8.87,0,0,1,.94-2.55c2.55-5.06,6.58-5.9,10.85-8.71,2.89-1.9,5.2-4.29,17.24-25.42,3.44-6,4.8-9.31,6.47-11.77A53.56,53.56,0,0,1,64.86,233a10.1,10.1,0,0,1,3.8-1.33h.15c.63-.06,2.38-7,6.43-29.05.72-4.4,1.67-9.95,2.94-16.5.79-4.08,1.52-7.59,4-10.78a20.22,20.22,0,0,1,3.39-3.34c2.84-2.18,4.47-2.14,7.32-4.33a22,22,0,0,0,3.34-3.23c3.64-4.55,3.56-11,3.48-17.77a57.51,57.51,0,0,0-2-14.94c-1.2-4.36-2-4.93-3.33-10-1.75-6.53-2.63-9.79-2-12.46,1.73-7.69,11-8.08,11.49-15.25a10.56,10.56,0,0,0-1.73-6.45c-2.28-3.06-5.18-1.76-11-4.68-3-1.5-5.25-2.62-6.83-5.38-2.88-5-1.14-11.24-.83-12.27C86.21,56.09,95.38,53.71,96,53.55" transform="translate(0.02 -0.03)"/><path class="cls-4" d="M96,53.55c12.37-1.42,16.81,1.37,18.49,4.37,1.47,2.63,2,7.57,5.88,9.82,1.24.72,2.7,1.11,2.8,2.1.11,1.17-1.83,2.38-3.5,3.23,2.59,1.75,3.06,2.79,3,3.42,0,.23-.21.83,0,1.09s.59,0,.76.3,0,.33,0,.57c0,.56.37.89.44,1.27.42,2.34.69,3.56.18,4.18-.18.22-.55.57-3.12.85-1.34.15-2.3.17-2.67.19-1.08,0-4.64.19-5.92,2-1.61,2.31-.25,8.21,2.87,10.21,2.41,1.54,4.06-.68,11.58-.39,3.57.14,5,0,6.12,1.17.77.78.72,1.34,2.73,5.15a22.06,22.06,0,0,0,1.8,3.14,7.82,7.82,0,0,0,4.8,2.65,8.21,8.21,0,0,1,2.22.88,16,16,0,0,1,3.26,2.83,30.84,30.84,0,0,1,3.35,2.53,40.06,40.06,0,0,0,8.06,5.66c1.92.91,3.69,1.1,7.14,1.55,8.86,1.17,12.92-.14,13.23,1.06.39,1.51-5.47,5.45-10.91,6.73a24.42,24.42,0,0,1-10.91,0s-5.16-1-18.74-8.6h0c-3,2-8.79,6.69-8.28,9.43s6.66,2,16.93,5.2a71.59,71.59,0,0,1,10.53,4.24c.13-.3.2-.42.23-.41s-1,4.73-3.42,6.95c-3.07,2.81-8.06,1.41-14.06-.27-6.83-1.92-8.2-3.78-10.21-2.64-2.47,1.42-2.15,5-3.83,16-2,13-3.63,15.63-2.06,20.56.72,2.23,2.67,4.53,6.55,9,7.11,8.24,16.49,17.17,20.27,23.73.71,1.25,1.16,2.17,1.16,2.17,1.88,3.89,1.79,5.83,3.29,9,1.23,2.64,1.6,2,2.43,4a16.46,16.46,0,0,1-.37,12.55c-1.95,4.27-4.52,4.15-5.93,7.8a21.45,21.45,0,0,1-3,5.23l-.12.15a10.73,10.73,0,0,1,1.49-1.8s-11.84,15.26-24.5,28.56a127.08,127.08,0,0,0-8.8,11.14c-3.78,5.19-5.52,7.24-5,9.68.62,3.21,4.46,5,6,5.66,3.1,1.41,4,.48,7.69,1.77,3.3,1.17,7.32,3.63,7.06,5.2-.19,1.2-2.69,1.63-6.25,2.25a47.5,47.5,0,0,1-7.46.59c-1.92.05-.75.24-8-.16-3.39-.19-4.34-.37-5.45-.84a12.87,12.87,0,0,0-1.84-.79c-2-.53-3,.29-4.92.34a5.56,5.56,0,0,1-4.41-1.39,5.76,5.76,0,0,1-1.47-4.63c.07-.57.3-1.54,1.82-3.46A20.58,20.58,0,0,1,99,302.56c2-1.39,4.86-5.19,10.54-12.81,5.13-6.9,6.33-9.25,7.15-11.49,2.61-7.13,2-8.66,5-18.18,2.32-7.35,3.71-9.75,5.46-11.73a18.65,18.65,0,0,1,7.37-5c3.44-3.07,4-5.5,4-7.11-.11-4.44-5.41-5.95-13.11-13.78a83,83,0,0,1-9.93-11.68c-6.83-10-7.35-18.65-10-18.46-1.4.1-2.3,2.43-3.81,6.81C98,209.79,96.86,214.84,95.22,220c-4.37,13.67-7.59,13-10.91,24.26a15.74,15.74,0,0,1-4,7.34c-2.32,2.2-4.27,2.17-7,3.38-4.29,2-4.62,4.47-9.7,9.64s-10.19,8.22-15,11.07a52.73,52.73,0,0,0-10.06,6.95,54.57,54.57,0,0,0-4.35,4.49c-7.46,8.79-6.81,16.38-12.77,24C13.77,321,2,326.19.54,324.15c-.46-.63,0-2,.58-3.07.94-1.22,9.4-12.18,12.13-16.52a7.48,7.48,0,0,0,1.07-2.28c.64-2.53-.6-4-.09-6.8a8.87,8.87,0,0,1,.94-2.55c2.55-5.06,6.58-5.9,10.85-8.71,2.89-1.9,5.2-4.29,17.24-25.42,3.44-6,4.8-9.31,6.47-11.77A53.56,53.56,0,0,1,64.86,233a10.1,10.1,0,0,1,3.8-1.33h.15c.63-.06,2.38-7,6.43-29.05.72-4.4,1.67-9.95,2.94-16.5.79-4.08,1.52-7.59,4-10.78a20.22,20.22,0,0,1,3.39-3.34c2.84-2.18,4.47-2.14,7.32-4.33a22,22,0,0,0,3.34-3.23c3.64-4.55,3.56-11,3.48-17.77a57.51,57.51,0,0,0-2-14.94c-1.2-4.36-2-4.93-3.33-10-1.75-6.53-2.63-9.79-2-12.46,1.73-7.69,11-8.08,11.49-15.25a10.56,10.56,0,0,0-1.73-6.45c-2.28-3.06-5.18-1.76-11-4.68-3-1.5-5.25-2.62-6.83-5.38-2.88-5-1.14-11.24-.83-12.27C86.21,56.09,95.38,53.71,96,53.55Z" transform="translate(0.02 -0.03)"/><path class="cls-3" d="M193.43,173.77c11.4-6,15.87-4.64,17.75-2,5.43,7.7-3.67,36.75-2.81,49.39a23,23,0,0,1,0,3.57,27.1,27.1,0,0,1-4.21,12.08C203,239,202,246.33,200.1,261.07c-1.42,10.87-2.13,16.3-2.17,19.85-.07,5.48.34,8.27-.62,13.24-1.27,6.53-4.07,12.47-5.15,12-.75-.29-.67-3.56-.57-8.28a23.05,23.05,0,0,1,.57-5.77,14.45,14.45,0,0,0,.75-3c.08-1.5-.34-2.36-1.13-4.77-1-3.14-1.54-4.7-1.51-6,.07-2.28,1.23-3.43,2-5.06,2.18-4.29-.18-7.62-.16-18a91.83,91.83,0,0,1,1.5-15.31c.54-3.3,1.11-5.66,1.32-6.52.73-2.95,1.43-5,1.51-5.27,1-3.1.79-16.29-3.06-54.4" transform="translate(0.02 -0.03)"/><path class="cls-4" d="M193.43,173.77c11.4-6,15.87-4.64,17.75-2,5.43,7.7-3.67,36.75-2.81,49.39a23,23,0,0,1,0,3.57,27.1,27.1,0,0,1-4.21,12.08C203,239,202,246.33,200.1,261.07c-1.42,10.87-2.13,16.3-2.17,19.85-.07,5.48.34,8.27-.62,13.24-1.27,6.53-4.07,12.47-5.15,12-.75-.29-.67-3.56-.57-8.28a23.05,23.05,0,0,1,.57-5.77,14.45,14.45,0,0,0,.75-3c.08-1.5-.34-2.36-1.13-4.77-1-3.14-1.54-4.7-1.51-6,.07-2.28,1.23-3.43,2-5.06,2.18-4.29-.18-7.62-.16-18a91.83,91.83,0,0,1,1.5-15.31c.54-3.3,1.11-5.66,1.32-6.52.73-2.95,1.43-5,1.51-5.27C197.49,225.07,197.28,211.88,193.43,173.77Z" transform="translate(0.02 -0.03)"/><path class="cls-3" d="M176.24,120.37C158,131.84,139,154.31,140.71,163.92c.44,2.41,2.6,7.85,4.71,7.77.71,0,1.42-.7,2.1-.26s.37,1.93,1.26,2.72a3,3,0,0,0,2.53.28c1.73-.3,2.15-1.16,3-.86s.66,1.5,1.63,2.23c1.68,1.27,4.73-.56,5.28-.89,1.74-1,2.1-2,2.88-1.77,1.23.35.84,2.91,2.42,3.83s3.53-.29,3.91-.5c1.36-.75,1.64-1.62,2.51-1.61,1,0,1.84,1.17,2.35,2.1h0c3.77,0,5.37,2,6.59,1.16.85-.58.64-1.92,1.23-2s.79,1.83,2.14,2.59a3.77,3.77,0,0,0,3.63-.43c1.09-.7,1.23-1.51,1.94-1.52s1.1,1.1,2,1.91c2.1,1.87,6.55,1.09,8.93-1.37,1-1.08,1.22-2,2-2,1.17-.05,2.51,1.69,4,1.57h.08c.84-.08,1.79-.18,3-.35l1.59-.26c2.11-.36,3.19.9,4.75.11.81-.41.75-.86,1.51-1.06,1.08-.27,1.58.54,2.72.72a4.43,4.43,0,0,0,4-2.05c1.27-1.95.32-4.18,1.21-4.66s2.13,2,3.95,2c2.09.07,4.23-3.08,4.65-4.85,2.32-9.67-29.67-16.61-34.27-41.32-1.6-8.54-3.54-19,1.13-27.48,2-3.64,5.4-7.29,4.38-11.25-.75-3-3.26-3.29-5.68-7.47a19.6,19.6,0,0,1-2.62-9c0-6,5.43-11.71,16.25-23.07a29.7,29.7,0,0,0,4.93-6.23c2.29-4,1.85-5.54,4.39-11.22,2.12-4.72,2.7-4.23,4.39-8.41s1.46-5.49,3-10.29C233.24,4.15,235.66.58,235.45.41c-.76-.59-36.73,66.27-45.32,61.7-2.74-1.45-3.75-10.67-2.55-12.27.06-.09.45-.58,1.12-1.46.8-1.05,1-1.3,1.14-1.49a1,1,0,0,1,.15-.15c.75-.73,1.33-.51,1.82-1a1.69,1.69,0,0,0,.5-1.21c0-.93-1-1.71-1.76-2-1-.39-1.75-.12-2.08-.73-.08-.15-.07-.31-.25-.73a2.58,2.58,0,0,0-.4-.68l-.32-.09a2.07,2.07,0,0,1-.47-.25,3.49,3.49,0,0,1-1.22-2.69c.06-1.22.84-1.51.65-2-.45-1.18-5.29-.08-5.29-.08h0c-1.41-1-6.16-4.25-11.32-3.22-1.09.22-1.93,1.41-2.83,1-.39-.2-.55-.54-.93-1.16-.89-1.47-2.24-3.28-2.5-3.13-.41.24,1.6,5.37,1.29,5.53-.14.08-.61-1-1.67-2.4s-2.43-2.8-2.64-2.61,1.1,3.4,3.2,5.66c.23.25.56.58.51.66-.18.32-6.08-4.26-6.42-3.75-.17.25.9,1.56,1.73,2.4,1.66,1.67,3.28,2.38,3.14,2.91,0,.15-.22.2-.36.27A6.08,6.08,0,0,0,160.15,40c-1.23,2-1.21,3.33-2.11,3.51a1.42,1.42,0,0,1-.69,0c-1.12-.29-3.3-.64-4.11-.32-2.16.88-2.3,9.84-.27,10.6,1.48.55,3.35-3.56,5.14-2.83.82.34,1,1.43,1.43,2.52a12.07,12.07,0,0,0,9.22,7.11c3.18.31,4.06-1.8,8.87-1.49,1.68.11,2.53.17,3.09.76,2.66,2.8-.38,13.52-6.65,20a28.64,28.64,0,0,1-2.13,1.94c-5.64,4.8-9.92,6-15.81,8.8-6.95,3.29-7.62,4.73-9.65,6a20,20,0,0,1-3.29,1.39,54.43,54.43,0,0,0-7.11,2.8c-.92.47-1.23.68-1.38,1.1-.58,1.59,1.54,4.86,3.73,5.78,3.69,1.53,6.25-5.68,16.68-10.85,10.09-5,9.33-7.16,13.3-7.28,9.32-.28,19.53,11.45,18.39,19.87-.73,5.44-6.21,8.29-10.56,11" transform="translate(0.02 -0.03)"/><path class="cls-4" d="M176.24,120.37C158,131.84,139,154.31,140.71,163.92c.44,2.41,2.6,7.85,4.71,7.77.71,0,1.42-.7,2.1-.26s.37,1.93,1.26,2.72a3,3,0,0,0,2.53.28c1.73-.3,2.15-1.16,3-.86s.66,1.5,1.63,2.23c1.68,1.27,4.73-.56,5.28-.89,1.74-1,2.1-2,2.88-1.77,1.23.35.84,2.91,2.42,3.83s3.53-.29,3.91-.5c1.36-.75,1.64-1.62,2.51-1.61,1,0,1.84,1.17,2.35,2.1h0c3.77,0,5.37,2,6.59,1.16.85-.58.64-1.92,1.23-2s.79,1.83,2.14,2.59a3.77,3.77,0,0,0,3.63-.43c1.09-.7,1.23-1.51,1.94-1.52s1.1,1.1,2,1.91c2.1,1.87,6.55,1.09,8.93-1.37,1-1.08,1.22-2,2-2,1.17-.05,2.51,1.69,4,1.57h.08c.84-.08,1.79-.18,3-.35l1.59-.26c2.11-.36,3.19.9,4.75.11.81-.41.75-.86,1.51-1.06,1.08-.27,1.58.54,2.72.72a4.43,4.43,0,0,0,4-2.05c1.27-1.95.32-4.18,1.21-4.66s2.13,2,3.95,2c2.09.07,4.23-3.08,4.65-4.85,2.32-9.67-29.67-16.61-34.27-41.32-1.6-8.54-3.54-19,1.13-27.48,2-3.64,5.4-7.29,4.38-11.25-.75-3-3.26-3.29-5.68-7.47a19.6,19.6,0,0,1-2.62-9c0-6,5.43-11.71,16.25-23.07a29.7,29.7,0,0,0,4.93-6.23c2.29-4,1.85-5.54,4.39-11.22,2.12-4.72,2.7-4.23,4.39-8.41s1.46-5.49,3-10.29C233.24,4.15,235.66.58,235.45.41c-.76-.59-36.73,66.27-45.32,61.7-2.74-1.45-3.75-10.67-2.55-12.27.06-.09.45-.58,1.12-1.46.8-1.05,1-1.3,1.14-1.49a1,1,0,0,1,.15-.15c.75-.73,1.33-.51,1.82-1a1.69,1.69,0,0,0,.5-1.21c0-.93-1-1.71-1.76-2-1-.39-1.75-.12-2.08-.73-.08-.15-.07-.31-.25-.73a2.58,2.58,0,0,0-.4-.68l-.32-.09a2.07,2.07,0,0,1-.47-.25,3.49,3.49,0,0,1-1.22-2.69c.06-1.22.84-1.51.65-2-.45-1.18-5.29-.08-5.29-.08h0c-1.41-1-6.16-4.25-11.32-3.22-1.09.22-1.93,1.41-2.83,1-.39-.2-.55-.54-.93-1.16-.89-1.47-2.24-3.28-2.5-3.13-.41.24,1.6,5.37,1.29,5.53-.14.08-.61-1-1.67-2.4s-2.43-2.8-2.64-2.61,1.1,3.4,3.2,5.66c.23.25.56.58.51.66-.18.32-6.08-4.26-6.42-3.75-.17.25.9,1.56,1.73,2.4,1.66,1.67,3.28,2.38,3.14,2.91,0,.15-.22.2-.36.27A6.08,6.08,0,0,0,160.15,40c-1.23,2-1.21,3.33-2.11,3.51a1.42,1.42,0,0,1-.69,0c-1.12-.29-3.3-.64-4.11-.32-2.16.88-2.3,9.84-.27,10.6,1.48.55,3.35-3.56,5.14-2.83.82.34,1,1.43,1.43,2.52a12.07,12.07,0,0,0,9.22,7.11c3.18.31,4.06-1.8,8.87-1.49,1.68.11,2.53.17,3.09.76,2.66,2.8-.38,13.52-6.65,20a28.64,28.64,0,0,1-2.13,1.94c-5.64,4.8-9.92,6-15.81,8.8-6.95,3.29-7.62,4.73-9.65,6a20,20,0,0,1-3.29,1.39,54.43,54.43,0,0,0-7.11,2.8c-.92.47-1.23.68-1.38,1.1-.58,1.59,1.54,4.86,3.73,5.78,3.69,1.53,6.25-5.68,16.68-10.85,10.09-5,9.33-7.16,13.3-7.28,9.32-.28,19.53,11.45,18.39,19.87C186.07,114.78,180.59,117.63,176.24,120.37Z" transform="translate(0.02 -0.03)"/></g><text class="cls-5" transform="translate(205.33 129.86) scale(0.88 1)"><tspan class="cls-6">ZEALAN</tspan><tspan x="224.87" y="0">D</tspan></text><g class="cls-2"><text class="cls-7" transform="translate(205.33 188.96) scale(0.88 1)"> <tspan class="cls-8" x="29.55" y="0">BALLETS</tspan><tspan class="cls-9" x="267.82" y="0">K</tspan><tspan class="cls-10" x="304.56" y="0">OL</tspan><tspan class="cls-11" x="380.65" y="0">E</tspan></text></g></g></g></g></g></svg>